<?xml version="1.0" standalone="no"?>
<!DOCTYPE svg PUBLIC "-//W3C//DTD SVG 20010904//EN"
 "http://www.w3.org/TR/2001/REC-SVG-20010904/DTD/svg10.dtd">
<svg version="1.0" xmlns="http://www.w3.org/2000/svg"
 width="200.000000pt" height="60.000000pt" viewBox="0 0 200.000000 60.000000"
 preserveAspectRatio="xMidYMid meet">
<g transform="translate(0.000000,60.000000) scale(0.100000,-0.100000)"
fill="#222222" stroke="none">
<path d="M14 397 c-10 -28 1 -200 13 -205 10 -3 13 18 13 80 l1 83 22 -26 c12
-14 31 -38 42 -54 l20 -27 35 51 c19 28 38 51 43 51 4 0 7 -36 7 -80 0 -47 4
-80 10 -80 6 0 10 43 10 110 0 64 -4 110 -10 110 -5 0 -28 -25 -50 -55 -22
-30 -44 -55 -48 -55 -4 1 -24 25 -45 55 -38 56 -54 66 -63 42z"/>
<path d="M290 403 c0 -5 20 -36 45 -69 36 -48 45 -67 45 -101 0 -24 5 -43 10
 -43 6 0 10 18 10 40 0 32 9 53 45 101 25 34 45 65 45 70 0 22 -23 5 -56 -41
 -20 -28 -40 -50 -44 -48 -4 2 -23 23 -41 47 -33 43 -59 62 -59 44z"/>
<path d="M627 403 c-2 -4 12 -53 33 -108 33 -87 41 -100 61 -100 19 0 27 11
47 63 13 35 27 60 30 57 4 -3 16 -32 28 -63 15 -41 27 -58 41 -60 17 -3 25 9
48 70 15 40 34 88 41 106 11 28 11 34 -1 39 -26 9 -41 -4 -54 -48 -30 -101
-30 -101 -56 -30 -13 35 -28 68 -33 73 -20 20 -40 -1 -62 -67 -12 -36 -25
-63 -29 -60 -3 4 -15 34 -27 68 -15 47 -26 63 -41 65 -12 2 -23 0 -26 -5z"/>
<path d="M1064 396 c-42 -19 -64 -52 -64 -96 0 -85 99 -137 180 -95 99 51 71
191 -40 201 -26 3 -58 -2 -76 -10z m91 -38 c63 -29 33 -128 -39 -128 -27 0
-66 41 -66 70 0 19 9 36 26 49 31 24 43 26 79 9z"/>
<path d="M1305 398 c-3 -8 -4 -57 -3 -109 3 -86 5 -94 23 -94 15 0 21 8 23 33
5 45 40 44 76 -3 18 -23 35 -35 52 -35 30 0 30 3 -2 46 l-26 34 20 17 c33 29
36 57 9 88 -20 24 -32 28 -95 33 -57 4 -73 2 -77 -10z m138 -51 c9 -24 -10
-39 -49 -41 -35 -1 -39 2 -42 27 -3 26 -1 27 41 27 28 0 47 -5 50 -13z"/>
<path d="M1554 397 c-3 -8 -3 -56 -2 -108 3 -89 4 -94 26 -97 19 -3 22 1 22
31 0 20 7 40 16 48 14 12 21 7 56 -34 27 -32 48 -47 64 -47 13 0 24 3 24 6 0
4 -20 32 -45 62 l-46 55 41 42 c45 46 49 55 19 55 -11 0 -45 -23 -75 -51 l-54
-52 0 52 c0 45 -3 51 -20 51 -11 0 -23 -6 -26 -13z"/>
<path d="M1826 389 c-52 -41 -27 -88 57 -110 35 -8 47 -16 45 -28 -4 -21 -42
-26 -80 -10 -25 10 -32 9 -46 -4 -14 -15 -13 -18 21 -32 74 -31 157 -5 157 50
0 28 -43 65 -74 65 -29 0 -61 24 -52 38 9 14 55 15 76 2 9 -5 19 -5 27 2 19
15 16 23 -12 36 -39 18 -89 14 -119 -9z"/>
</g>
</svg>
